Coordinates
version=1
nRows=9
nColumns=24
inDegrees=yes

Units are S.I. units (second, meters, Newtons, ...)
Angles are in degrees.

endheader
time	pelvis_tilt	pelvis_list	pelvis_rotation	pelvis_tx	pelvis_ty	pelvis_tz	hip_flexion_r	hip_adduction_r	hip_rotation_r	knee_angle_r	ankle_angle_r	subtalar_angle_r	mtp_angle_r	hip_flexion_l	hip_adduction_l	hip_rotation_l	knee_angle_l	ankle_angle_l	subtalar_angle_l	mtp_angle_l	lumbar_extension	lumbar_bending	lumbar_rotation
      1.25000000	     -0.33069102	     -5.30375926	     -2.38017854	      0.01830041	      1.04031485	      0.31073478	    -19.72678329	     10.44395901	     -1.37177639	     -5.54402389	      4.51103031	     -6.48904695	     -1.86987012	     24.23477321	     -2.45377746	     -8.41981204	      1.88279168	     17.59161743	      9.87502452	     -4.57403697	      4.15814956	      8.38329673	      2.28762858
      1.25416667	     -0.33123030	     -5.30341649	     -2.41090978	      0.02436187	      1.04003551	      0.31080631	    -19.81155973	     10.40217391	     -1.37131741	     -6.03033407	      4.40020875	     -6.49106611	     -1.85076442	     24.13881371	     -2.44412434	     -8.34446092	      1.69059486	     17.63219748	      9.92706613	     -4.56444428	      4.23415360	      8.32281346	      2.29593963
      1.25833333	     -0.36124194	     -5.22894970	     -2.46043636	      0.03073462	      1.03977677	      0.31085233	    -19.85885277	     10.26601370	     -1.50201574	     -6.52019114	      3.98346227	     -6.43796955	     -1.78252183	     24.03146567	     -2.35848356	     -8.30857041	      1.50389360	     17.87060262	      9.98548422	     -4.52968356	      4.27617871	      8.21279973	      2.30497890
      1.26250000	     -0.35877133	     -5.18461700	     -2.49595805	      0.03700878	      1.03957245	      0.31091245	    -19.91876047	     10.16627540	     -1.59080273	     -7.05209663	      3.68092914	     -6.39528672	     -1.71376849	     23.89981336	     -2.30649126	     -8.23874194	      1.27861932	     17.95618085	     10.00545287	     -4.49870268	      4.33543744	      8.10825957	      2.31427722
      1.26666667	     -0.35914907	     -5.12811347	     -2.53374931	      0.04335971	      1.03939614	      0.31095862	    -19.96123368	     10.04804908	     -1.70489589	     -7.60854622	      3.33596470	     -6.33780266	     -1.63712011	     23.75925962	     -2.24293100	     -8.17358355	      1.04104892	     18.00635589	      9.96232176	     -4.46532099	      4.38568865	      7.99497655	      2.32280359
      1.27083333	     -0.33647501	     -5.11250323	     -2.56017599	      0.04959972	      1.03927344	      0.31103858	    -20.01074170	      9.97989987	     -1.71387386	     -8.20538064	      3.18052208	     -6.32527955	     -1.61463035	     23.60796081	     -2.22820263	     -8.08683074	      0.76771765	     17.99002290	      9.95155577	     -4.45541850	      4.46861104	      7.91065234	      2.33424761
      1.27500000	     -0.30984605	     -4.99952303	     -2.58720315	      0.05617414	      1.03921106	      0.31099317	    -20.04614111	      9.78503830	     -1.99785787	     -8.79827728	      2.49403440	     -6.13792236	     -1.48828097	     23.40095796	     -2.09386232	     -8.04507203	      0.54349860	     17.92078376	      9.69975953	     -4.40362970	      4.50214789	      7.73364226	      2.35131674
      1.27916667	     -0.29495740	     -4.96596655	     -2.64347482	      0.06251607	      1.03916661	      0.31107624	    -20.04647693	      9.67883026	     -2.01890773	     -9.47659937	      2.34563334	     -6.13309700	     -1.46349995	     23.21846748	     -2.07000422	     -7.92416607	      0.29943694	     17.86844783	      9.68476934	     -4.39329022	      4.56078960	      7.64780459	      2.35784558
      1.28333333	     -0.25060767	     -4.83023879	     -2.64900242	      0.06919324	      1.03919355	      0.31093925	    -20.06129744	      9.44972215	     -2.39413879	    -10.12535379	      1.55041759	     -5.85176171	     -1.28018541	     22.96779112	     -1.89778741	     -7.82853017	      0.10693149	     17.53387048	      9.20938807	     -4.32358280	      4.59914649	      7.43979478	      2.37343739
